<?xml version="1.0" encoding="UTF-8"?>
<!-- Generated by scripts/molecule-images.mts. Do not edit by hand: the next
     run overwrites it. Change the script instead.
     Rock-salt lattice, drawn by drawRockSalt(). -->
<svg xmlns="http://www.w3.org/2000/svg" viewBox="0 0 720 400" width="720" height="400" id="sodium-chloride" role="img">
  <title>sodium-chloride</title>
  <style>
    #sodium-chloride text { font-family: system-ui, -apple-system, "Segoe UI", sans-serif; }
    #sodium-chloride line { stroke-linecap: round; }
    #sodium-chloride polygon { stroke-linejoin: round; }
  </style>
  <g transform="translate(78.6 330.6)">
    <line x1="162.8" y1="-77.3" x2="200.8" y2="-77.3" stroke="#64748b" stroke-width="2.4" />
    <line x1="128.8" y1="-111.3" x2="128.8" y2="-149.3" stroke="#64748b" stroke-width="2.4" />
    <line x1="240.8" y1="-77.3" x2="278.8" y2="-77.3" stroke="#64748b" stroke-width="2.4" />
    <line x1="220.8" y1="-97.3" x2="220.8" y2="-135.3" stroke="#64748b" stroke-width="2.4" />
    <line x1="312.8" y1="-111.3" x2="312.8" y2="-149.3" stroke="#64748b" stroke-width="2.4" />
    <line x1="148.8" y1="-169.3" x2="186.8" y2="-169.3" stroke="#64748b" stroke-width="2.4" />
    <line x1="128.8" y1="-189.3" x2="128.8" y2="-227.3" stroke="#64748b" stroke-width="2.4" />
    <line x1="254.8" y1="-169.3" x2="292.8" y2="-169.3" stroke="#64748b" stroke-width="2.4" />
    <line x1="220.8" y1="-203.3" x2="220.8" y2="-241.3" stroke="#64748b" stroke-width="2.4" />
    <line x1="312.8" y1="-189.3" x2="312.8" y2="-227.3" stroke="#64748b" stroke-width="2.4" />
    <line x1="162.8" y1="-261.3" x2="200.8" y2="-261.3" stroke="#64748b" stroke-width="2.4" />
    <line x1="240.8" y1="-261.3" x2="278.8" y2="-261.3" stroke="#64748b" stroke-width="2.4" />
    <circle cx="128.8" cy="-77.3" r="34" fill="#059669" stroke="#64748b" stroke-width="2" />
    <circle cx="220.8" cy="-77.3" r="20" fill="#a855f7" stroke="#64748b" stroke-width="2" />
    <circle cx="312.8" cy="-77.3" r="34" fill="#059669" stroke="#64748b" stroke-width="2" />
    <circle cx="128.8" cy="-169.3" r="20" fill="#a855f7" stroke="#64748b" stroke-width="2" />
    <circle cx="220.8" cy="-169.3" r="34" fill="#059669" stroke="#64748b" stroke-width="2" />
    <circle cx="312.8" cy="-169.3" r="20" fill="#a855f7" stroke="#64748b" stroke-width="2" />
    <circle cx="128.8" cy="-261.3" r="34" fill="#059669" stroke="#64748b" stroke-width="2" />
    <circle cx="220.8" cy="-261.3" r="20" fill="#a855f7" stroke="#64748b" stroke-width="2" />
    <circle cx="312.8" cy="-261.3" r="34" fill="#059669" stroke="#64748b" stroke-width="2" />
    <line x1="81.5" y1="-48.9" x2="99.6" y2="-59.8" stroke="#64748b" stroke-width="2.4" />
    <line x1="185.6" y1="-56.1" x2="203.7" y2="-67" stroke="#64748b" stroke-width="2.4" />
    <line x1="265.5" y1="-48.9" x2="283.6" y2="-59.8" stroke="#64748b" stroke-width="2.4" />
    <line x1="93.6" y1="-148.1" x2="111.7" y2="-159" stroke="#64748b" stroke-width="2.4" />
    <line x1="173.5" y1="-140.9" x2="191.6" y2="-151.8" stroke="#64748b" stroke-width="2.4" />
    <line x1="277.6" y1="-148.1" x2="295.7" y2="-159" stroke="#64748b" stroke-width="2.4" />
    <line x1="81.5" y1="-232.9" x2="99.6" y2="-243.8" stroke="#64748b" stroke-width="2.4" />
    <line x1="185.6" y1="-240.1" x2="203.7" y2="-251" stroke="#64748b" stroke-width="2.4" />
    <line x1="265.5" y1="-232.9" x2="283.6" y2="-243.8" stroke="#64748b" stroke-width="2.4" />
    <line x1="84.4" y1="-38.6" x2="122.4" y2="-38.6" stroke="#64748b" stroke-width="2.4" />
    <line x1="64.4" y1="-58.6" x2="64.4" y2="-96.6" stroke="#64748b" stroke-width="2.4" />
    <line x1="190.4" y1="-38.6" x2="228.4" y2="-38.6" stroke="#64748b" stroke-width="2.4" />
    <line x1="156.4" y1="-72.6" x2="156.4" y2="-110.6" stroke="#64748b" stroke-width="2.4" />
    <line x1="248.4" y1="-58.6" x2="248.4" y2="-96.6" stroke="#64748b" stroke-width="2.4" />
    <line x1="98.4" y1="-130.6" x2="136.4" y2="-130.6" stroke="#64748b" stroke-width="2.4" />
    <line x1="64.4" y1="-164.6" x2="64.4" y2="-202.6" stroke="#64748b" stroke-width="2.4" />
    <line x1="176.4" y1="-130.6" x2="214.4" y2="-130.6" stroke="#64748b" stroke-width="2.4" />
    <line x1="156.4" y1="-150.6" x2="156.4" y2="-188.6" stroke="#64748b" stroke-width="2.4" />
    <line x1="248.4" y1="-164.6" x2="248.4" y2="-202.6" stroke="#64748b" stroke-width="2.4" />
    <line x1="84.4" y1="-222.6" x2="122.4" y2="-222.6" stroke="#64748b" stroke-width="2.4" />
    <line x1="190.4" y1="-222.6" x2="228.4" y2="-222.6" stroke="#64748b" stroke-width="2.4" />
    <circle cx="64.4" cy="-38.6" r="20" fill="#a855f7" stroke="#64748b" stroke-width="2" />
    <circle cx="156.4" cy="-38.6" r="34" fill="#059669" stroke="#64748b" stroke-width="2" />
    <circle cx="248.4" cy="-38.6" r="20" fill="#a855f7" stroke="#64748b" stroke-width="2" />
    <circle cx="64.4" cy="-130.6" r="34" fill="#059669" stroke="#64748b" stroke-width="2" />
    <circle cx="156.4" cy="-130.6" r="20" fill="#a855f7" stroke="#64748b" stroke-width="2" />
    <circle cx="248.4" cy="-130.6" r="34" fill="#059669" stroke="#64748b" stroke-width="2" />
    <circle cx="64.4" cy="-222.6" r="20" fill="#a855f7" stroke="#64748b" stroke-width="2" />
    <circle cx="156.4" cy="-222.6" r="34" fill="#059669" stroke="#64748b" stroke-width="2" />
    <circle cx="248.4" cy="-222.6" r="20" fill="#a855f7" stroke="#64748b" stroke-width="2" />
    <line x1="29.2" y1="-17.5" x2="47.3" y2="-28.4" stroke="#64748b" stroke-width="2.4" />
    <line x1="109.1" y1="-10.3" x2="127.2" y2="-21.1" stroke="#64748b" stroke-width="2.4" />
    <line x1="213.2" y1="-17.5" x2="231.3" y2="-28.4" stroke="#64748b" stroke-width="2.4" />
    <line x1="17.1" y1="-102.3" x2="35.2" y2="-113.1" stroke="#64748b" stroke-width="2.4" />
    <line x1="121.2" y1="-109.5" x2="139.3" y2="-120.4" stroke="#64748b" stroke-width="2.4" />
    <line x1="201.1" y1="-102.3" x2="219.2" y2="-113.1" stroke="#64748b" stroke-width="2.4" />
    <line x1="29.2" y1="-201.5" x2="47.3" y2="-212.4" stroke="#64748b" stroke-width="2.4" />
    <line x1="109.1" y1="-194.3" x2="127.2" y2="-205.1" stroke="#64748b" stroke-width="2.4" />
    <line x1="213.2" y1="-201.5" x2="231.3" y2="-212.4" stroke="#64748b" stroke-width="2.4" />
    <line x1="34" y1="0" x2="72" y2="0" stroke="#64748b" stroke-width="2.4" />
    <line x1="0" y1="-34" x2="0" y2="-72" stroke="#64748b" stroke-width="2.4" />
    <line x1="112" y1="0" x2="150" y2="0" stroke="#64748b" stroke-width="2.4" />
    <line x1="92" y1="-20" x2="92" y2="-58" stroke="#64748b" stroke-width="2.4" />
    <line x1="184" y1="-34" x2="184" y2="-72" stroke="#64748b" stroke-width="2.4" />
    <line x1="20" y1="-92" x2="58" y2="-92" stroke="#64748b" stroke-width="2.4" />
    <line x1="0" y1="-112" x2="0" y2="-150" stroke="#64748b" stroke-width="2.4" />
    <line x1="126" y1="-92" x2="164" y2="-92" stroke="#64748b" stroke-width="2.4" />
    <line x1="92" y1="-126" x2="92" y2="-164" stroke="#64748b" stroke-width="2.4" />
    <line x1="184" y1="-112" x2="184" y2="-150" stroke="#64748b" stroke-width="2.4" />
    <line x1="34" y1="-184" x2="72" y2="-184" stroke="#64748b" stroke-width="2.4" />
    <line x1="112" y1="-184" x2="150" y2="-184" stroke="#64748b" stroke-width="2.4" />
    <circle cx="0" cy="0" r="34" fill="#059669" stroke="#64748b" stroke-width="2" />
    <circle cx="92" cy="0" r="20" fill="#a855f7" stroke="#64748b" stroke-width="2" />
    <circle cx="184" cy="0" r="34" fill="#059669" stroke="#64748b" stroke-width="2" />
    <circle cx="0" cy="-92" r="20" fill="#a855f7" stroke="#64748b" stroke-width="2" />
    <circle cx="92" cy="-92" r="34" fill="#059669" stroke="#64748b" stroke-width="2" />
    <circle cx="184" cy="-92" r="20" fill="#a855f7" stroke="#64748b" stroke-width="2" />
    <circle cx="0" cy="-184" r="34" fill="#059669" stroke="#64748b" stroke-width="2" />
    <circle cx="92" cy="-184" r="20" fill="#a855f7" stroke="#64748b" stroke-width="2" />
    <circle cx="184" cy="-184" r="34" fill="#059669" stroke="#64748b" stroke-width="2" />
  </g>
  <circle cx="508" cy="165" r="34" fill="#059669" stroke="#64748b" stroke-width="2" />
  <text x="560" y="165" dominant-baseline="central" font-size="30" fill="#64748b">Cl<tspan font-size="20" dy="-10">−</tspan></text>
  <circle cx="508" cy="250" r="20" fill="#a855f7" stroke="#64748b" stroke-width="2" />
  <text x="560" y="250" dominant-baseline="central" font-size="30" fill="#64748b">Na<tspan font-size="20" dy="-10">+</tspan></text>
</svg>
