<svg width="235mm" height="255mm" version="1.1" viewBox="0 0 235 255" xmlns="http://www.w3.org/2000/svg" xmlns:xlink="http://www.w3.org/1999/xlink">
 <defs><pattern id="c" width="2" height="1" patternTransform="matrix(-3.8 3.5 15.5 17 0-4)" patternUnits="userSpaceOnUse"><rect width="1" height="2"/></pattern></defs>
 <path d="m89 166c19 4 36-1 51-15" fill="none" stroke="#f00" stroke-width="2"/>
 <g id="b" stroke-width="4"><path d="m102 7c-43 0-16 75 0 75" fill="none" stroke="#000" stroke-width="5"/><circle cx="92" cy="33" r="4"/></g>
 <use transform="matrix(-1 0 0 1 204 0)" xlink:href="#b"/><path d="m90 135 5 1-9 70-22-6"/><path d="m79 127 4 3-43 56-16-16" fill="url(#c)"/><path d="m169 176-47-44" stroke="#000" stroke-width="5"/>
 <g font-family="Arial" font-size="60px"><text x="82" y="128">N</text><text x="171" y="221">H</text><text x="48" y="253">H</text><text x="-2" y="227">H</text><text x="132" y="142" fill="#f00" font-size="24px">101.7 pm<tspan x="90" y="190">107.8°</tspan></text></g></svg>